<svg xmlns="http://www.w3.org/2000/svg" xmlns:xlink="http://www.w3.org/1999/xlink" width="825" height="293" viewBox="0 0 825 293">
  <defs>
    <clipPath id="clip-pre-and-post-processors">
      <rect width="825" height="293"/>
    </clipPath>
  </defs>
  <g id="pre-and-post-processors" clip-path="url(#clip-pre-and-post-processors)">
    <rect width="825" height="293" fill="#fff"/>
    <g id="Group_3" data-name="Group 3" transform="translate(76.103 10)">
      <g id="file" transform="translate(32.897 44.967)">
        <path id="Path_1" data-name="Path 1" d="M227.629,28.777a2.312,2.312,0,0,0-.558-1.524L203.922.811A.155.155,0,0,1,203.9.794,2.336,2.336,0,0,0,203.435.4c-.051-.034-.1-.062-.154-.092a2.46,2.46,0,0,0-.464-.2c-.044-.012-.083-.029-.126-.041a2.36,2.36,0,0,0-.54-.067h-56.89a4.713,4.713,0,0,0-4.708,4.708V115.358a4.713,4.713,0,0,0,4.708,4.708h77.686a4.715,4.715,0,0,0,4.708-4.708V29.039a2.076,2.076,0,0,0-.026-.263Zm-4.683,86.582H145.259V4.714H199.8V28.8a2.354,2.354,0,0,0,2.354,2.354h20.8Z" transform="translate(-140.551 -0.006)"/>
        <path id="Path_2" data-name="Path 2" d="M348.283,237.617a29.906,29.906,0,0,0,.413,4.267,30.466,30.466,0,0,1,.411,4.313c0,1.8-.513,3.8-4.161,3.8v2.621c3.649,0,4.161,2.209,4.161,3.8a28.413,28.413,0,0,1-.411,4.164,29.187,29.187,0,0,0-.413,4.212c0,5.188,3.186,7.041,7.452,7.041h1.079v-2.826h-.924c-2.878,0-4.061-1.594-4.061-4.47a23.22,23.22,0,0,1,.36-3.7,23.348,23.348,0,0,0,.36-3.9c.054-3.29-1.387-5.036-3.7-5.6v-.1c2.313-.62,3.752-2.265,3.7-5.552a23.91,23.91,0,0,0-.36-3.9,22.58,22.58,0,0,1-.36-3.648c0-2.775,1.026-4.419,4.061-4.419h.924v-2.827h-1.079C351.368,230.885,348.283,232.89,348.283,237.617ZM378,246.2a30.5,30.5,0,0,1,.413-4.313,29.9,29.9,0,0,0,.413-4.267c0-4.727-3.136-6.732-7.5-6.732h-1.027v2.827h.924c2.982.05,4.06,1.643,4.06,4.419a30.749,30.749,0,0,1-.359,3.648,23.525,23.525,0,0,0-.415,3.9c0,3.288,1.44,4.93,3.7,5.552v.1c-2.262.565-3.7,2.313-3.7,5.6a22.854,22.854,0,0,0,.415,3.9,31.7,31.7,0,0,1,.359,3.7c0,2.876-1.234,4.42-4.11,4.47h-.874v2.826h1.078c4.214,0,7.451-1.853,7.451-7.041a29.193,29.193,0,0,0-.412-4.212,28.647,28.647,0,0,1-.412-4.164c0-1.594.515-3.8,4.164-3.8V250C378.51,250,378,248,378,246.2Z" transform="translate(-320.981 -195.636)"/>
      </g>
      <text id="DSL" transform="translate(48.419 153.545)" font-size="33" font-family="SegoeUI-Semibold, Segoe UI" font-weight="600"><tspan x="0" y="0">DSL</tspan></text>
    </g>
    <g id="Group_2" data-name="Group 2" transform="translate(105.103 10)">
      <g id="file-2" data-name="file" transform="translate(251.897 44.967)">
        <path id="Path_1-2" data-name="Path 1" d="M227.629,28.777a2.312,2.312,0,0,0-.558-1.524L203.922.811A.155.155,0,0,1,203.9.794,2.336,2.336,0,0,0,203.435.4c-.051-.034-.1-.062-.154-.092a2.46,2.46,0,0,0-.464-.2c-.044-.012-.083-.029-.126-.041a2.36,2.36,0,0,0-.54-.067h-56.89a4.713,4.713,0,0,0-4.708,4.708V115.358a4.713,4.713,0,0,0,4.708,4.708h77.686a4.715,4.715,0,0,0,4.708-4.708V29.039a2.076,2.076,0,0,0-.026-.263Zm-4.683,86.582H145.259V4.714H199.8V28.8a2.354,2.354,0,0,0,2.354,2.354h20.8Z" transform="translate(-140.551 -0.006)"/>
        <path id="Path_2-2" data-name="Path 2" d="M348.283,237.617a29.906,29.906,0,0,0,.413,4.267,30.466,30.466,0,0,1,.411,4.313c0,1.8-.513,3.8-4.161,3.8v2.621c3.649,0,4.161,2.209,4.161,3.8a28.413,28.413,0,0,1-.411,4.164,29.187,29.187,0,0,0-.413,4.212c0,5.188,3.186,7.041,7.452,7.041h1.079v-2.826h-.924c-2.878,0-4.061-1.594-4.061-4.47a23.22,23.22,0,0,1,.36-3.7,23.348,23.348,0,0,0,.36-3.9c.054-3.29-1.387-5.036-3.7-5.6v-.1c2.313-.62,3.752-2.265,3.7-5.552a23.91,23.91,0,0,0-.36-3.9,22.58,22.58,0,0,1-.36-3.648c0-2.775,1.026-4.419,4.061-4.419h.924v-2.827h-1.079C351.368,230.885,348.283,232.89,348.283,237.617ZM378,246.2a30.5,30.5,0,0,1,.413-4.313,29.9,29.9,0,0,0,.413-4.267c0-4.727-3.136-6.732-7.5-6.732h-1.027v2.827h.924c2.982.05,4.06,1.643,4.06,4.419a30.749,30.749,0,0,1-.359,3.648,23.525,23.525,0,0,0-.415,3.9c0,3.288,1.44,4.93,3.7,5.552v.1c-2.262.565-3.7,2.313-3.7,5.6a22.854,22.854,0,0,0,.415,3.9,31.7,31.7,0,0,1,.359,3.7c0,2.876-1.234,4.42-4.11,4.47h-.874v2.826h1.078c4.214,0,7.451-1.853,7.451-7.041a29.193,29.193,0,0,0-.412-4.212,28.647,28.647,0,0,1-.412-4.164c0-1.594.515-3.8,4.164-3.8V250C378.51,250,378,248,378,246.2Z" transform="translate(-320.981 -195.636)"/>
      </g>
      <text id="CSS" transform="translate(267.419 153.545)" font-size="33" font-family="SegoeUI-Semibold, Segoe UI" font-weight="600"><tspan x="0" y="0">CSS</tspan></text>
    </g>
    <g id="Group_1" data-name="Group 1" transform="translate(49.103 10)">
      <g id="file-3" data-name="file" transform="translate(556.897 44.967)">
        <path id="Path_1-3" data-name="Path 1" d="M227.629,28.777a2.312,2.312,0,0,0-.558-1.524L203.922.811A.155.155,0,0,1,203.9.794,2.336,2.336,0,0,0,203.435.4c-.051-.034-.1-.062-.154-.092a2.46,2.46,0,0,0-.464-.2c-.044-.012-.083-.029-.126-.041a2.36,2.36,0,0,0-.54-.067h-56.89a4.713,4.713,0,0,0-4.708,4.708V115.358a4.713,4.713,0,0,0,4.708,4.708h77.686a4.715,4.715,0,0,0,4.708-4.708V29.039a2.076,2.076,0,0,0-.026-.263Zm-4.683,86.582H145.259V4.714H199.8V28.8a2.354,2.354,0,0,0,2.354,2.354h20.8Z" transform="translate(-140.551 -0.006)"/>
        <path id="Path_2-3" data-name="Path 2" d="M348.283,237.617a29.906,29.906,0,0,0,.413,4.267,30.466,30.466,0,0,1,.411,4.313c0,1.8-.513,3.8-4.161,3.8v2.621c3.649,0,4.161,2.209,4.161,3.8a28.413,28.413,0,0,1-.411,4.164,29.187,29.187,0,0,0-.413,4.212c0,5.188,3.186,7.041,7.452,7.041h1.079v-2.826h-.924c-2.878,0-4.061-1.594-4.061-4.47a23.22,23.22,0,0,1,.36-3.7,23.348,23.348,0,0,0,.36-3.9c.054-3.29-1.387-5.036-3.7-5.6v-.1c2.313-.62,3.752-2.265,3.7-5.552a23.91,23.91,0,0,0-.36-3.9,22.58,22.58,0,0,1-.36-3.648c0-2.775,1.026-4.419,4.061-4.419h.924v-2.827h-1.079C351.368,230.885,348.283,232.89,348.283,237.617ZM378,246.2a30.5,30.5,0,0,1,.413-4.313,29.9,29.9,0,0,0,.413-4.267c0-4.727-3.136-6.732-7.5-6.732h-1.027v2.827h.924c2.982.05,4.06,1.643,4.06,4.419a30.749,30.749,0,0,1-.359,3.648,23.525,23.525,0,0,0-.415,3.9c0,3.288,1.44,4.93,3.7,5.552v.1c-2.262.565-3.7,2.313-3.7,5.6a22.854,22.854,0,0,0,.415,3.9,31.7,31.7,0,0,1,.359,3.7c0,2.876-1.234,4.42-4.11,4.47h-.874v2.826h1.078c4.214,0,7.451-1.853,7.451-7.041a29.193,29.193,0,0,0-.412-4.212,28.647,28.647,0,0,1-.412-4.164c0-1.594.515-3.8,4.164-3.8V250C378.51,250,378,248,378,246.2Z" transform="translate(-320.981 -195.636)"/>
      </g>
      <text id="CSS_" data-name="CSS++" transform="translate(563.419 153.545)" font-size="24" font-family="SegoeUI-Semibold, Segoe UI" font-weight="600"><tspan x="0" y="0">CSS++</tspan></text>
    </g>
    <text id="Pre-processors" transform="translate(196.419 223)" font-size="24" font-family="SegoeUI-Semibold, Segoe UI" font-weight="600"><tspan x="0" y="0">Pre-processors</tspan></text>
    <text id="Variables_Nesting_Mixins_Operations_Extend_Functions_Imports_..." data-name="Variables
Nesting
Mixins
Operations
Extend
Functions
Imports
..." transform="translate(0.419 55)" font-size="14" font-family="SegoeUI-Semibold, Segoe UI" font-weight="600"><tspan x="37.022" y="15">Variables</tspan><tspan x="44.467" y="34">Nesting</tspan><tspan x="52.526" y="53">Mixins</tspan><tspan x="23.774" y="72">Operations</tspan><tspan x="50.722" y="91">Extend</tspan><tspan x="32.764" y="110">Functions</tspan><tspan x="44.043" y="129">Imports</tspan><tspan x="83.869" y="148">...</tspan></text>
    <text id="Autoprefixer_Imports_Minification_REM_to_PX_Modules_cssnano_..." data-name="Autoprefixer
Imports 
Minification 
REM to PX
Modules
cssnano 
..." transform="translate(707.419 55)" font-size="14" font-family="SegoeUI-Semibold, Segoe UI" font-weight="600"><tspan x="0" y="15">Autoprefixer</tspan><tspan x="0" y="34">Imports </tspan><tspan x="0" y="53">Minification </tspan><tspan x="0" y="72">REM to PX</tspan><tspan x="0" y="91">Modules</tspan><tspan x="0" y="110">cssnano </tspan><tspan x="0" y="129">...</tspan></text>
    <text id="Post-processors" transform="translate(444.419 223)" font-size="24" font-family="SegoeUI-Semibold, Segoe UI" font-weight="600"><tspan x="0" y="0">Post-processors</tspan></text>
    <path id="Union_1" data-name="Union 1" d="M4.106,35.832.879,34.478a1.463,1.463,0,0,1-.625-2.187A31.816,31.816,0,0,1,13.789,17.924,31.575,31.575,0,0,1,.254,3.66,1.485,1.485,0,0,1,.879,1.473L4.106.119A1.6,1.6,0,0,1,6.188.951,24.035,24.035,0,0,0,19.723,13.028a33.456,33.456,0,0,0,6.558,1.562H73.925V3.243A1.221,1.221,0,0,1,75.8,2.41L93.5,16.777a1.391,1.391,0,0,1,0,2.083L75.8,33.643a1.137,1.137,0,0,1-1.875-.832V21.566H26.281a25.043,25.043,0,0,0-6.558,1.562A24.035,24.035,0,0,0,6.188,35.205a1.547,1.547,0,0,1-1.311.926A1.173,1.173,0,0,1,4.106,35.832Z" transform="translate(229.602 104.979)"/>
    <g id="Group_4" data-name="Group 4">
      <path id="合并" d="M218.985,100.646V52.865h-6.976v47.781a33.43,33.43,0,0,1-1.562,6.559,24.035,24.035,0,0,1-12.077,13.534,1.6,1.6,0,0,0-.832,2.082l1.354,3.227a1.484,1.484,0,0,0,2.187.625,31.572,31.572,0,0,0,14.264-13.534C217.273,109.946,219.192,102.728,218.985,100.646Z" transform="translate(605.529 -92.44) rotate(90)"/>
      <path id="合并-2" data-name="合并" d="M10.966,17.063C8.884,11.337,6.782,9,.951,6.188A1.6,1.6,0,0,1,.119,4.106L1.473.879A1.484,1.484,0,0,1,3.66.254c6.246,3.019,8.586,5.171,11.605,10.9C16.588,14.373,13.268,18.061,10.966,17.063Z" transform="translate(477.602 142.376) rotate(-90)"/>
      <path id="合并-3" data-name="合并" d="M218.985,97h11.245a1.137,1.137,0,0,0,.832-1.874l-14.784-17.7a1.39,1.39,0,0,0-2.082,0l-14.367,17.7A1.221,1.221,0,0,0,200.661,97Z" transform="translate(649.529 -92.44) rotate(90)"/>
    </g>
  </g>
</svg>
